<svg width="173" height="15" viewBox="0 0 173 15" fill="none" xmlns="http://www.w3.org/2000/svg">
<path d="M0 14.1727V0.99353H5.76023C6.40351 0.99353 6.97369 1.07389 7.48538 1.22731C7.98977 1.38803 8.42105 1.60719 8.77193 1.89941C9.12281 2.17702 9.38596 2.51308 9.5614 2.92219C9.75146 3.31668 9.8538 3.76962 9.8538 4.29562C9.8538 4.63168 9.7807 4.96042 9.64912 5.28917C9.53216 5.60331 9.36403 5.88822 9.15205 6.13661C8.93275 6.3923 8.68421 6.60416 8.39181 6.7795C8.09942 6.94022 7.78509 7.04249 7.45614 7.10094V7.24705C7.90205 7.29088 8.30409 7.39316 8.65497 7.56849C9.02047 7.74382 9.3421 7.97029 9.61988 8.2406C9.89035 8.51821 10.095 8.83965 10.2339 9.20492C10.3874 9.57751 10.4678 9.97931 10.4678 10.403C10.4678 10.9875 10.3582 11.5135 10.1462 11.981C9.94883 12.434 9.64912 12.8212 9.23977 13.1499C8.84503 13.486 8.36988 13.7343 7.80702 13.9097C7.23684 14.085 6.60819 14.1727 5.90643 14.1727H0ZM2.74854 6.45805H4.82456C5.56287 6.45805 6.12573 6.31194 6.52047 6.01972C6.92982 5.7275 7.1345 5.31839 7.1345 4.7924C7.1345 4.2664 6.94444 3.85729 6.57895 3.56507C6.22807 3.25824 5.71637 3.09752 5.05848 3.09752H2.74854V6.45805ZM5.20468 12.0687C6.00146 12.0687 6.60819 11.9153 7.01754 11.6011C7.44152 11.2724 7.66082 10.7975 7.66082 10.1693C7.66082 9.5702 7.44152 9.10995 7.01754 8.79582C6.58626 8.48899 5.96491 8.32826 5.1462 8.32826H2.74854V12.0687H5.20468Z" fill="#841618"/>
<path d="M16.2184 12.3317C16.5254 12.3317 16.8105 12.2879 17.0663 12.1856C17.3368 12.0906 17.5707 11.9664 17.7681 11.8057C17.9582 11.6523 18.1044 11.4697 18.2067 11.2505C18.3237 11.0167 18.3821 10.7756 18.3821 10.5199V9.78939L16.3354 9.90628C15.2023 9.98664 14.6394 10.3957 14.6394 11.1336C14.6394 11.5062 14.7856 11.7984 15.078 12.0103C15.3704 12.2294 15.7506 12.3317 16.2184 12.3317ZM15.3412 14.3188C14.8514 14.3188 14.4055 14.2457 13.9962 14.1143C13.6014 13.9828 13.2652 13.7782 12.9728 13.5006C12.6804 13.2303 12.4465 12.9088 12.271 12.5363C12.1102 12.171 12.0371 11.7619 12.0371 11.3089C12.0371 10.3738 12.3661 9.65789 13.0313 9.1465C13.7111 8.64242 14.6833 8.3502 15.9552 8.26984L18.3821 8.12373V7.30551C18.3821 6.88179 18.2359 6.56035 17.9435 6.34119C17.6511 6.10741 17.2272 5.99052 16.6862 5.99052C16.1965 5.99052 15.7944 6.07088 15.4874 6.2243C15.1731 6.38502 14.9684 6.6188 14.8734 6.92563H12.4172C12.4538 6.45808 12.5927 6.04166 12.8266 5.66908C13.0605 5.28189 13.3602 4.96045 13.733 4.70475C14.1204 4.43445 14.5664 4.2299 15.078 4.09109C15.6044 3.95959 16.1892 3.88654 16.8324 3.88654C17.4903 3.88654 18.0751 3.9669 18.5868 4.12031C19.1131 4.28103 19.5517 4.5002 19.9026 4.79242C20.2681 5.08464 20.5459 5.44992 20.7213 5.87363C20.9114 6.28274 21.0137 6.76491 21.0137 7.30551V14.1727H18.4406V12.8577H18.2652C18.0093 13.3253 17.6219 13.6905 17.0956 13.9389C16.5839 14.1873 15.9991 14.3188 15.3412 14.3188Z" fill="#841618"/>
<path d="M29.9552 7.65618C29.8529 7.17401 29.6409 6.77952 29.3119 6.4873C28.9757 6.19508 28.5225 6.04897 27.9377 6.04897C27.214 6.04897 26.6584 6.31197 26.271 6.83796C25.8982 7.36396 25.7154 8.12373 25.7154 9.11728C25.7154 10.1327 25.8982 10.8998 26.271 11.4258C26.6584 11.9518 27.214 12.2148 27.9377 12.2148C28.4786 12.2148 28.9172 12.0906 29.2535 11.8349C29.6043 11.5646 29.8383 11.1847 29.9552 10.6953H32.4406C32.3821 11.2651 32.2359 11.7765 32.002 12.244C31.7681 12.697 31.4538 13.0842 31.0663 13.4129C30.6935 13.7271 30.2476 13.9681 29.7213 14.1435C29.195 14.3188 28.5956 14.4065 27.9377 14.4065C27.1555 14.4065 26.4538 14.2896 25.8324 14.0558C25.2257 13.8074 24.7067 13.4568 24.2827 13.0038C23.8733 12.5582 23.559 12.0103 23.347 11.3674C23.1277 10.7099 23.0254 9.95742 23.0254 9.11728C23.0254 8.28445 23.1277 7.53929 23.347 6.89641C23.559 6.23891 23.8733 5.691 24.2827 5.25997C24.7067 4.81434 25.2257 4.47098 25.8324 4.2372C26.4538 4.00342 27.1555 3.88654 27.9377 3.88654C28.5956 3.88654 29.195 3.9742 29.7213 4.14953C30.2622 4.32487 30.7228 4.58056 31.0956 4.90931C31.483 5.24536 31.7827 5.63986 32.002 6.10741C32.2359 6.56035 32.3821 7.07174 32.4406 7.65618H29.9552Z" fill="#841618"/>
<path d="M40.6813 4.09103H43.6929L39.8625 8.41589L43.9561 14.1726H40.7982L37.8742 10.0815L37.1432 10.8413V14.1726H34.4824V0.262939H37.1432V8.036H37.2894L40.6813 4.09103Z" fill="#841618"/>
<path d="M53.6753 1.69489V4.20798H55.7513V6.28275H53.6753V10.8122C53.6753 11.2651 53.7703 11.5939 53.9677 11.8057C54.1797 12.003 54.5086 12.0979 54.9619 12.0979H55.4005C55.5174 12.0833 55.6344 12.0687 55.7513 12.0687V14.085C55.5905 14.1289 55.4005 14.1581 55.1665 14.1727C54.9326 14.1873 54.6768 14.2019 54.4063 14.2019C53.7996 14.2019 53.2806 14.1581 52.8566 14.0558C52.4253 13.9608 52.0671 13.8074 51.7747 13.5883C51.4969 13.3545 51.3069 13.0623 51.1899 12.7116C51.073 12.3609 51.0145 11.9445 51.0145 11.455V6.28275H49.4355V4.20798H51.0145V1.69489H53.6753Z" fill="#841618"/>
<path d="M62.3048 12.2149C63.0212 12.2149 63.5767 11.9519 63.9715 11.4259C64.3589 10.8853 64.5563 10.1109 64.5563 9.11734C64.5563 8.64979 64.4978 8.22607 64.3808 7.83157C64.2785 7.44438 64.1323 7.12294 63.9422 6.86725C63.7668 6.61886 63.5402 6.42161 63.2697 6.2828C62.9919 6.12939 62.6703 6.04903 62.3048 6.04903C61.9539 6.04903 61.6396 6.12939 61.3691 6.2828C61.0914 6.42161 60.8574 6.61886 60.6674 6.86725C60.4919 7.12294 60.3457 7.44438 60.2288 7.83157C60.1264 8.22607 60.0826 8.64979 60.0826 9.11734C60.0826 10.1109 60.2726 10.8853 60.6674 11.4259C61.0548 11.9519 61.603 12.2149 62.3048 12.2149ZM62.3048 14.4065C61.5446 14.4065 60.8501 14.2896 60.2288 14.0559C59.6221 13.8075 59.103 13.4568 58.6791 13.0039C58.2478 12.5582 57.9188 12.0103 57.6849 11.3674C57.4656 10.7099 57.3633 9.95748 57.3633 9.11734C57.3633 8.32104 57.4656 7.5978 57.6849 6.95491C57.9188 6.29741 58.2478 5.7422 58.6791 5.28925C59.103 4.8217 59.6221 4.47104 60.2288 4.23726C60.8501 4.00348 61.5446 3.8866 62.3048 3.8866C63.0797 3.8866 63.7741 4.00348 64.3808 4.23726C65.0022 4.47104 65.5285 4.8217 65.9598 5.28925C66.3838 5.7422 66.7054 6.29741 66.9247 6.95491C67.1586 7.5978 67.2756 8.32104 67.2756 9.11734C67.2756 9.95748 67.1586 10.7099 66.9247 11.3674C66.7054 12.0103 66.3838 12.5582 65.9598 13.0039C65.5285 13.4568 65.0022 13.8075 64.3808 14.0559C63.7741 14.2896 63.0797 14.4065 62.3048 14.4065Z" fill="#841618"/>
<path d="M74.0664 4.09115H76.6395V5.75681H76.7857C76.9027 5.46459 77.0489 5.20159 77.2243 4.96781C77.3997 4.73404 77.6044 4.54409 77.8383 4.38337C78.0869 4.22996 78.3647 4.11307 78.657 4.03271C78.9494 3.93774 79.2565 3.8866 79.5927 3.8866C80.2945 3.8866 80.8793 4.05462 81.3471 4.38337C81.8296 4.69751 82.1731 5.15776 82.3705 5.75681H82.5459C82.6629 5.46459 82.8164 5.2162 83.0138 4.99703C83.2038 4.76326 83.4304 4.57332 83.6863 4.41259C83.9568 4.23726 84.2492 4.11307 84.5635 4.03271C84.8705 3.93774 85.2068 3.8866 85.5576 3.8866C86.062 3.8866 86.5225 3.96696 86.9319 4.12037C87.3413 4.2811 87.6775 4.50026 87.9553 4.79248C88.2258 5.0847 88.4378 5.44998 88.5986 5.8737C88.7521 6.2828 88.8325 6.74305 88.8325 7.24713V14.1728H86.1717V7.94846C86.1717 6.76497 85.6161 6.16592 84.505 6.16592C84.2272 6.16592 83.9787 6.21706 83.7448 6.31203C83.5255 6.4143 83.3427 6.5385 83.1892 6.69191C83.0284 6.85264 82.9114 7.04258 82.8383 7.27635C82.7579 7.49552 82.7214 7.7366 82.7214 8.0069V14.1728H80.1483V7.86079C80.1483 7.32019 80.0021 6.89647 79.7097 6.60425C79.4173 6.31203 79.0152 6.16592 78.5109 6.16592C78.2331 6.16592 77.9918 6.21706 77.7799 6.31203C77.5606 6.4143 77.3778 6.5458 77.2243 6.72113C77.0635 6.89647 76.9392 7.10102 76.8442 7.3348C76.7638 7.56857 76.7272 7.82427 76.7272 8.09457V14.1728H74.0664V4.09115Z" fill="#841618"/>
<path d="M94.9274 12.3318C95.2344 12.3318 95.5195 12.2879 95.7753 12.1857C96.0458 12.0907 96.2797 11.9665 96.4771 11.8058C96.6671 11.6524 96.8133 11.4697 96.9157 11.2506C97.0326 11.0168 97.0911 10.7757 97.0911 10.52V9.78945L95.0443 9.90634C93.9113 9.9867 93.3484 10.3958 93.3484 11.1337C93.3484 11.5062 93.4946 11.7985 93.787 12.0103C94.0794 12.2295 94.4595 12.3318 94.9274 12.3318ZM94.0502 14.3189C93.5604 14.3189 93.1145 14.2458 92.7052 14.1143C92.3104 13.9828 91.9742 13.7783 91.6818 13.5006C91.3894 13.2303 91.1555 12.9089 90.98 12.5363C90.8192 12.171 90.7461 11.7619 90.7461 11.309C90.7461 10.3739 91.075 9.65795 91.7402 9.14656C92.4201 8.64248 93.3923 8.35026 94.6642 8.2699L97.0911 8.12379V7.30558C97.0911 6.88185 96.9449 6.56041 96.6525 6.34125C96.3601 6.10747 95.9362 5.99058 95.3952 5.99058C94.9055 5.99058 94.5034 6.07094 94.1964 6.22436C93.8821 6.38508 93.6774 6.61886 93.5824 6.92569H91.1262C91.1628 6.45814 91.3016 6.04172 91.5356 5.66914C91.7695 5.28195 92.0692 4.96051 92.442 4.70481C92.8294 4.43451 93.2753 4.22996 93.787 4.09115C94.3133 3.95965 94.8981 3.8866 95.5414 3.8866C96.1993 3.8866 96.7841 3.96696 97.2958 4.12037C97.8221 4.2811 98.2607 4.50026 98.6116 4.79248C98.9771 5.0847 99.2549 5.44998 99.4303 5.8737C99.6204 6.2828 99.7227 6.76497 99.7227 7.30558V14.1728H97.1496V12.8578H96.9742C96.7183 13.3253 96.3309 13.6906 95.8046 13.939C95.2929 14.1874 94.7081 14.3189 94.0502 14.3189Z" fill="#841618"/>
<path d="M102.23 4.09109H104.891V14.1727H102.23V4.09109ZM103.575 2.68843C103.341 2.68843 103.122 2.65921 102.932 2.60076C102.734 2.52771 102.566 2.42543 102.435 2.30854C102.296 2.19165 102.186 2.06015 102.113 1.89943C102.033 1.7241 101.996 1.54146 101.996 1.34421C101.996 1.15427 102.033 0.978938 102.113 0.818217C102.186 0.642885 102.296 0.496775 102.435 0.379887C102.566 0.262998 102.734 0.175332 102.932 0.116888C103.122 0.0438321 103.341 0 103.575 0C103.809 0 104.021 0.0438321 104.218 0.116888C104.408 0.175332 104.577 0.262998 104.715 0.379887C104.847 0.496775 104.957 0.642885 105.037 0.818217C105.11 0.978938 105.154 1.15427 105.154 1.34421C105.154 1.54146 105.11 1.7241 105.037 1.89943C104.957 2.06015 104.847 2.19165 104.715 2.30854C104.577 2.42543 104.408 2.52771 104.218 2.60076C104.021 2.65921 103.809 2.68843 103.575 2.68843Z" fill="#841618"/>
<path d="M107.488 4.09115H110.061V5.72759H110.208C110.441 5.14314 110.807 4.69751 111.319 4.38337C111.823 4.05462 112.444 3.8866 113.19 3.8866C114.316 3.8866 115.178 4.22265 115.763 4.88015C116.348 5.52303 116.64 6.45083 116.64 7.65624V14.1728H113.98V8.29913C113.98 7.5978 113.819 7.0718 113.512 6.72113C113.219 6.35586 112.759 6.16592 112.137 6.16592C111.823 6.16592 111.538 6.22436 111.289 6.34125C111.056 6.44353 110.851 6.58963 110.675 6.77958C110.5 6.97683 110.361 7.2106 110.266 7.48091C110.186 7.7366 110.149 8.02882 110.149 8.35757V14.1728H107.488V4.09115Z" fill="#841618"/>
<path d="M123.826 4.09115H126.399V5.75681H126.545C126.662 5.46459 126.809 5.20159 126.984 4.96781C127.16 4.73404 127.364 4.54409 127.598 4.38337C127.847 4.22996 128.124 4.11307 128.417 4.03271C128.709 3.93774 129.016 3.8866 129.352 3.8866C130.054 3.8866 130.639 4.05462 131.107 4.38337C131.589 4.69751 131.933 5.15776 132.13 5.75681H132.306C132.423 5.46459 132.576 5.2162 132.774 4.99703C132.964 4.76326 133.19 4.57332 133.446 4.41259C133.717 4.23726 134.009 4.11307 134.323 4.03271C134.63 3.93774 134.967 3.8866 135.317 3.8866C135.822 3.8866 136.282 3.96696 136.692 4.12037C137.101 4.2811 137.437 4.50026 137.715 4.79248C137.986 5.0847 138.198 5.44998 138.358 5.8737C138.512 6.2828 138.592 6.74305 138.592 7.24713V14.1728H135.931V7.94846C135.931 6.76497 135.376 6.16592 134.265 6.16592C133.987 6.16592 133.738 6.21706 133.505 6.31203C133.285 6.4143 133.102 6.5385 132.949 6.69191C132.788 6.85264 132.671 7.04258 132.598 7.27635C132.518 7.49552 132.481 7.7366 132.481 8.0069V14.1728H129.908V7.86079C129.908 7.32019 129.762 6.89647 129.469 6.60425C129.177 6.31203 128.775 6.16592 128.271 6.16592C127.993 6.16592 127.752 6.21706 127.54 6.31203C127.32 6.4143 127.138 6.5458 126.984 6.72113C126.823 6.89647 126.699 7.10102 126.604 7.3348C126.524 7.56857 126.487 7.82427 126.487 8.09457V14.1728H123.826V4.09115Z" fill="#841618"/>
<path d="M145.416 5.90292C145.102 5.90292 144.817 5.96136 144.568 6.07825C144.312 6.18053 144.086 6.32664 143.896 6.51658C143.698 6.69191 143.545 6.91838 143.428 7.18869C143.311 7.4663 143.238 7.76582 143.223 8.09457H147.522C147.478 7.41516 147.273 6.88186 146.908 6.48736C146.535 6.10017 146.038 5.90292 145.416 5.90292ZM150.036 11.309C149.934 11.7765 149.751 12.2076 149.481 12.5948C149.225 12.9673 148.903 13.2888 148.516 13.5591C148.121 13.8367 147.668 14.0413 147.141 14.1728C146.615 14.3262 146.045 14.4065 145.446 14.4065C144.663 14.4065 143.969 14.2896 143.37 14.0559C142.763 13.8075 142.244 13.4568 141.82 13.0039C141.41 12.5582 141.096 12.0103 140.884 11.3674C140.665 10.7246 140.562 9.994 140.562 9.17579C140.562 8.35757 140.665 7.62702 140.884 6.98413C141.118 6.32664 141.44 5.77142 141.849 5.31848C142.273 4.85092 142.785 4.50026 143.37 4.26648C143.969 4.01809 144.641 3.8866 145.387 3.8866C146.147 3.8866 146.82 4.00348 147.405 4.23726C147.989 4.47104 148.472 4.80709 148.867 5.23081C149.276 5.66184 149.583 6.19514 149.802 6.83802C150.014 7.4663 150.124 8.17493 150.124 8.97123V9.78945H143.194V9.90634C143.209 10.3008 143.267 10.6369 143.37 10.9291C143.486 11.2213 143.64 11.477 143.837 11.6889C144.049 11.908 144.291 12.0688 144.568 12.1857C144.839 12.2879 145.153 12.3318 145.504 12.3318C146.03 12.3318 146.469 12.2441 146.82 12.0688C147.171 11.8934 147.412 11.6451 147.551 11.309H150.036Z" fill="#841618"/>
<path d="M152.195 4.09115H154.768V5.72759H154.915C155.149 5.14314 155.514 4.69751 156.026 4.38337C156.53 4.05462 157.151 3.8866 157.897 3.8866C159.023 3.8866 159.885 4.22265 160.47 4.88015C161.055 5.52303 161.347 6.45083 161.347 7.65624V14.1728H158.687V8.29913C158.687 7.5978 158.526 7.0718 158.219 6.72113C157.926 6.35586 157.466 6.16592 156.844 6.16592C156.53 6.16592 156.245 6.22436 155.996 6.34125C155.763 6.44353 155.558 6.58963 155.382 6.77958C155.207 6.97683 155.068 7.2106 154.973 7.48091C154.893 7.7366 154.856 8.02882 154.856 8.35757V14.1728H152.195V4.09115Z" fill="#841618"/>
<path d="M172.939 14.1727H170.337V12.5655H170.191C169.957 13.15 169.591 13.6102 169.109 13.939C168.641 14.2458 168.012 14.4065 167.237 14.4065C166.689 14.4065 166.199 14.3188 165.775 14.1435C165.344 13.9682 164.971 13.7271 164.664 13.413C164.35 13.0842 164.116 12.697 163.962 12.2441C163.802 11.7765 163.729 11.2505 163.729 10.6661V4.09113H166.36V9.99398C166.36 11.382 166.981 12.0687 168.231 12.0687C168.889 12.0687 169.401 11.8861 169.752 11.5135C170.103 11.1263 170.278 10.593 170.278 9.90631V4.09113H172.939V14.1727Z" fill="#841618"/>
</svg>
